<svg xmlns="http://www.w3.org/2000/svg" width="100" height="100" viewBox="0 0 100 100" version="1.1"><path d="M 37.146 23.085 C 33.750 24.782, 29.867 27.619, 28.516 29.390 C 20.512 39.884, 19.996 50.153, 26.770 64.134 C 31.235 73.349, 48.496 100, 50 100 C 51.504 100, 68.765 73.349, 73.230 64.134 C 80.004 50.153, 79.488 39.884, 71.484 29.390 C 70.133 27.619, 66.250 24.782, 62.854 23.085 C 54.148 18.734, 45.852 18.734, 37.146 23.085 M 41.970 32.250 C 28.847 38.879, 28.847 57.121, 41.970 63.750 C 47.614 66.601, 52.386 66.601, 58.030 63.750 C 71.153 57.121, 71.153 38.879, 58.030 32.250 C 55.580 31.012, 51.967 30, 50 30 C 48.033 30, 44.420 31.012, 41.970 32.250" stroke="none" fill="#fc3c04" fill-rule="evenodd"/></svg>