<svg xmlns="http://www.w3.org/2000/svg" width="100" height="100" viewBox="0 0 100 100" version="1.1"><path d="M 46 44 C 44.900 45.100, 44 46.900, 44 48 C 44 49.100, 44.900 50.900, 46 52 C 47.100 53.100, 48.900 54, 50 54 C 52.526 54, 56 50.593, 56 48.117 C 56 47.074, 55.107 46, 54 45.710 C 52.900 45.423, 52 44.470, 52 43.594 C 52 41.347, 48.410 41.590, 46 44" stroke="none" fill="#1a2e35" fill-rule="evenodd"/><path d="M 41.970 32.250 C 28.847 38.879, 28.847 57.121, 41.970 63.750 C 47.614 66.601, 52.386 66.601, 58.030 63.750 C 71.153 57.121, 71.153 38.879, 58.030 32.250 C 55.580 31.012, 51.967 30, 50 30 C 48.033 30, 44.420 31.012, 41.970 32.250 M 45.500 36.903 C 41.049 38.858, 38.500 42.921, 38.500 48.061 C 38.500 52.262, 38.966 53.428, 41.769 56.231 C 44.583 59.045, 45.730 59.500, 50 59.500 C 54.270 59.500, 55.417 59.045, 58.231 56.231 C 61.045 53.417, 61.500 52.270, 61.500 48 C 61.500 43.787, 61.033 42.572, 58.407 39.945 C 55.105 36.643, 49.239 35.261, 45.500 36.903 M 52.446 43.087 C 51.416 44.755, 53.733 46.667, 55.113 45.287 C 56.267 44.133, 55.545 42, 54 42 C 53.515 42, 52.816 42.489, 52.446 43.087" stroke="none" fill="#ebeff2" fill-rule="evenodd"/><path d="M 9.750 39.980 C 4.938 45.375, 1 50.109, 1 50.500 C 1 51.456, 18.299 70.808, 19.250 70.915 C 19.663 70.962, 20 61.775, 20 50.500 C 20 39.225, 19.663 30.038, 19.250 30.085 C 18.837 30.131, 14.563 34.584, 9.750 39.980 M 80.072 50.500 C 80.063 71.500, 80.063 71.500, 89.491 61.500 C 94.677 56, 98.924 51.050, 98.928 50.500 C 98.933 49.950, 94.694 45, 89.509 39.500 C 80.080 29.500, 80.080 29.500, 80.072 50.500 M 45.500 36.903 C 41.049 38.858, 38.500 42.921, 38.500 48.061 C 38.500 52.262, 38.966 53.428, 41.769 56.231 C 44.583 59.045, 45.730 59.500, 50 59.500 C 54.270 59.500, 55.417 59.045, 58.231 56.231 C 61.045 53.417, 61.500 52.270, 61.500 48 C 61.500 43.787, 61.033 42.572, 58.407 39.945 C 55.105 36.643, 49.239 35.261, 45.500 36.903 M 46.016 43.984 C 43.455 46.545, 43.449 49.449, 46 52 C 50.307 56.307, 56.249 52.804, 55.747 46.253 C 55.477 42.744, 55.256 42.523, 51.747 42.253 C 49.085 42.049, 47.460 42.540, 46.016 43.984" stroke="none" fill="#068be2" fill-rule="evenodd"/></svg>