<svg xmlns="http://www.w3.org/2000/svg" width="100" height="100" viewBox="0 0 100 100" version="1.1"><path d="M 47.228 40.230 C 44.844 41.379, 43.398 44.988, 44.338 47.439 C 44.643 48.234, 46.012 49.617, 47.379 50.513 C 49.426 51.854, 50.276 51.926, 52.183 50.921 C 53.457 50.250, 54.831 49.205, 55.235 48.600 C 56.508 46.694, 56.063 44, 54.475 44 C 53.637 44, 52.523 42.875, 52 41.500 C 50.951 38.742, 50.542 38.633, 47.228 40.230" stroke="none" fill="#1a2e35" fill-rule="evenodd"/><path d="M 42.500 28.423 C 36.301 31.201, 31.044 39.038, 31.044 45.500 C 31.044 52.869, 38.584 62.269, 45.542 63.574 C 54.712 65.294, 62.489 61.579, 66.517 53.554 C 70.076 46.464, 69.498 40.378, 64.638 33.747 C 60.357 27.908, 49.484 25.293, 42.500 28.423 M 43.763 34.565 C 38.316 37.521, 36.285 46.288, 39.706 52.080 C 44.651 60.450, 57.144 59.450, 61.164 50.362 C 66.053 39.309, 54.444 28.770, 43.763 34.565 M 52.533 39.947 C 51.653 41.370, 52.775 43, 54.632 43 C 55.508 43, 56.010 42.297, 55.823 41.333 C 55.434 39.324, 53.437 38.484, 52.533 39.947" stroke="none" fill="#ebf1f3" fill-rule="evenodd"/><path d="M 43.763 34.565 C 38.316 37.521, 36.285 46.288, 39.706 52.080 C 44.651 60.450, 57.144 59.450, 61.164 50.362 C 66.053 39.309, 54.444 28.770, 43.763 34.565 M 47.228 40.301 C 44.850 41.373, 43.392 44.974, 44.338 47.439 C 44.643 48.234, 46.012 49.617, 47.379 50.513 C 49.426 51.854, 50.276 51.926, 52.183 50.921 C 53.457 50.250, 54.831 49.205, 55.235 48.600 C 56.479 46.736, 56.078 44, 54.559 44 C 53.766 44, 52.866 43.592, 52.558 43.093 C 52.249 42.595, 52.943 42.434, 54.099 42.736 C 55.751 43.168, 56.125 42.886, 55.843 41.423 C 55.427 39.264, 50.850 38.668, 47.228 40.301" stroke="none" fill="#0c80c8" fill-rule="evenodd"/></svg>