<svg xmlns="http://www.w3.org/2000/svg" width="100" height="100" viewBox="0 0 100 100" version="1.1"><path d="M 37.637 18.445 C 31.304 21.547, 26.567 26.221, 23.484 32.408 C 21.492 36.406, 21.003 38.887, 21.014 44.946 C 21.028 51.909, 21.406 53.283, 25.848 62.500 C 30.650 72.465, 48.421 100, 50.050 100 C 51.609 100, 69.208 72.678, 74.148 62.589 C 78.739 53.210, 78.999 52.243, 78.991 44.589 C 78.982 37.494, 78.623 35.876, 76.069 31.422 C 70.126 21.061, 61.410 15.980, 49.667 16.031 C 44.189 16.055, 41.354 16.624, 37.637 18.445 M 42.500 28.417 C 36.502 31.094, 30.972 39.430, 31.022 45.718 C 31.052 49.577, 34.191 55.980, 37.624 59.186 C 45.234 66.295, 56.732 65.625, 63.721 57.666 C 69.934 50.589, 70.350 41.449, 64.799 33.942 C 60.341 27.912, 49.596 25.250, 42.500 28.417" stroke="none" fill="#fc3c04" fill-rule="evenodd"/></svg>